# This file uses meters as units for non-parametric coordinates.

mtllib Walls upper.mtl
g default
v -1032.404541 588.410217 -1511.961304
v 1018.970642 588.410217 -1511.961304
v -1032.404541 1224.572754 -1511.961304
v 1018.970642 1224.572754 -1511.961304
v -1032.404541 1224.572754 -2284.893555
v 1018.970642 1224.572754 -2284.893555
v -1032.404541 588.410217 -2284.893555
v 1018.970642 588.410217 -2284.893555
vt 0.095844 0.702007
vt 0.967358 0.701323
vt 0.967570 0.971593
vt 0.096056 0.972277
vt 0.059338 0.038693
vt 0.707352 0.038659
vt 0.707365 0.282823
vt 0.059351 0.282857
vn 0.000000 0.000000 1.000000
vn 0.000000 0.000000 1.000000
vn 0.000000 0.000000 1.000000
vn 0.000000 0.000000 1.000000
vn 0.000000 1.000000 0.000000
vn 0.000000 1.000000 0.000000
vn 0.000000 1.000000 0.000000
vn 0.000000 1.000000 0.000000
vn 0.000000 0.000000 -1.000000
vn 0.000000 0.000000 -1.000000
vn 0.000000 0.000000 -1.000000
vn 0.000000 0.000000 -1.000000
vn 0.000000 -1.000000 0.000000
vn 0.000000 -1.000000 0.000000
vn 0.000000 -1.000000 0.000000
vn 0.000000 -1.000000 0.000000
vn 1.000000 0.000000 0.000000
vn 1.000000 0.000000 0.000000
vn 1.000000 0.000000 0.000000
vn 1.000000 0.000000 0.000000
vn -1.000000 0.000000 0.000000
vn -1.000000 0.000000 0.000000
vn -1.000000 0.000000 0.000000
vn -1.000000 0.000000 0.000000
s off
g pCube8
usemtl initialShadingGroup
f 1/1/1 2/2/2 4/3/3 3/4/4
f 3//5 4//6 6//7 5//8
f 5//9 6//10 8//11 7//12
f 7/5/13 8/6/14 2/7/15 1/8/16
f 2//17 8//18 6//19 4//20
f 7//21 1//22 3//23 5//24
g default
v -1000.957825 1206.388916 -1458.477051
v -1000.957825 406.993591 -1458.477051
v -1666.847900 1206.388916 -1458.477051
v -1666.847900 406.993591 -1458.477051
v -1666.847900 1206.388916 2247.142578
v -1666.847900 406.993591 2247.142578
vt 0.800068 0.058038
vt 0.932257 0.058038
vt 0.932257 0.670799
vt 0.800068 0.670799
vt 0.294166 0.637363
vt 0.034619 0.637363
vt 0.034619 0.325780
vt 0.294166 0.325780
vn 0.000000 0.000000 1.000000
vn 0.000000 0.000000 1.000000
vn 0.000000 0.000000 1.000000
vn 0.000000 0.000000 1.000000
vn 1.000000 0.000000 0.000000
vn 1.000000 0.000000 0.000000
vn 1.000000 0.000000 0.000000
vn 1.000000 0.000000 0.000000
s off
g pCube18
usemtl initialShadingGroup
f 9/13/25 11/14/26 12/15/27 10/16/28
f 12/9/29 11/10/30 13/11/31 14/12/32
g default
v -1009.982483 638.793701 -1511.588989
v -817.093018 638.793701 -1423.094482
v -312.101715 638.793701 -1285.128662
v 312.101746 638.793701 -1285.128906
v 817.093018 638.793701 -1423.094482
v 1009.982422 638.793701 -1517.465698
v 0.000000 589.095337 -1646.327637
v 0.000000 638.793701 -1646.327637
v -940.301025 589.095337 -1520.885010
v -1009.982483 582.525513 -1511.588989
v -817.093018 582.525513 -1423.094482
v -804.245178 545.019653 -1458.464722
v -312.101715 582.525513 -1285.128662
v -307.070526 545.019653 -1322.634766
v 312.101746 582.525513 -1285.128906
v 307.070557 545.019653 -1322.634766
v 817.093018 582.525513 -1423.094482
v 803.791565 545.019653 -1458.340942
v 1009.982422 582.525513 -1517.465698
v 942.291809 589.095337 -1526.102051
vt 0.639481 0.530321
vt 0.782217 0.568810
vt 0.551709 0.623457
vt 0.463325 0.530902
vt 0.320977 0.570298
vt 0.782142 0.546352
vt 0.766238 0.548527
vt 0.735124 0.534377
vt 0.738031 0.526290
vt 0.621497 0.503736
vt 0.622617 0.495168
vt 0.481263 0.504199
vt 0.480086 0.495639
vt 0.367944 0.535561
vt 0.364880 0.527522
vt 0.336370 0.551138
vt 0.320907 0.549217
vt 0.781929 0.481557
vt 0.737884 0.481702
vt 0.737842 0.468854
vt 0.781886 0.468709
vt 0.622574 0.482083
vt 0.622532 0.469235
vt 0.480043 0.482554
vt 0.480001 0.469705
vt 0.364733 0.482934
vt 0.364691 0.470086
vt 0.320689 0.483080
vt 0.320646 0.470231
vt 0.781681 0.406548
vt 0.737703 0.426900
vt 0.550959 0.376543
vt 0.622497 0.458784
vt 0.479966 0.459254
vt 0.364552 0.428132
vt 0.320437 0.406729
vn 0.000000 1.000000 0.000000
vn 0.000000 1.000000 0.000000
vn 0.000000 1.000000 -0.000000
vn 0.000000 1.000000 -0.000000
vn 0.000000 1.000000 -0.000000
vn 0.000000 1.000000 0.000000
vn 0.000000 1.000000 0.000001
vn -0.231252 -0.945845 0.227814
vn -0.231252 -0.945845 0.227814
vn -0.198722 -0.766997 0.610103
vn -0.200031 -0.773448 0.601469
vn -0.085392 -0.710229 0.698773
vn -0.085392 -0.710229 0.698773
vn 0.085371 -0.710229 0.698776
vn 0.085371 -0.710229 0.698776
vn 0.200107 -0.767900 0.608512
vn 0.201512 -0.774175 0.600038
vn 0.237156 -0.944333 0.228018
vn 0.237156 -0.944333 0.228018
vn -0.416993 0.000000 0.908910
vn -0.308654 0.000000 0.951175
vn -0.308654 0.000000 0.951175
vn -0.416993 0.000000 0.908910
vn -0.121279 0.000000 0.992619
vn -0.121279 0.000000 0.992619
vn 0.121279 0.000000 0.992619
vn 0.121279 0.000000 0.992619
vn 0.315873 0.000000 0.948802
vn 0.315873 0.000000 0.948802
vn 0.439472 0.000000 0.898256
vn 0.439472 0.000000 0.898256
vn 0.021129 -0.993119 -0.115184
vn 0.029360 -0.993775 -0.107465
vn 0.000009 -0.992420 -0.122891
vn -0.021123 -0.993119 -0.115189
vn -0.029360 -0.993775 -0.107465
s 1
g pCylinder3
usemtl initialShadingGroup
f 15/46/33 16/47/34 22/48/35
f 16/47/34 17/49/36 22/48/35
f 17/49/36 18/50/37 22/48/35
f 18/50/37 19/51/38 22/48/35
f 19/51/38 20/52/39 22/48/35
s 2
f 24/22/40 23/23/41 26/24/42 25/25/43
f 25/25/43 26/24/42 28/26/44 27/27/45
f 27/27/45 28/26/44 30/28/46 29/29/47
f 29/29/47 30/28/46 32/30/48 31/31/49
f 31/31/49 32/30/48 34/32/50 33/33/51
s 3
f 24/34/52 25/35/53 16/36/54 15/37/55
f 25/35/53 27/38/56 17/39/57 16/36/54
f 27/38/56 29/40/58 18/41/59 17/39/57
f 29/40/58 31/42/60 19/43/61 18/41/59
f 31/42/60 33/44/62 20/45/63 19/43/61
s 4
f 28/17/64 26/18/65 21/19/66
f 30/20/67 28/17/64 21/19/66
f 32/21/68 30/20/67 21/19/66
g default
v 982.431030 416.440735 -1458.477051
v 1690.824585 416.440735 -1458.477051
v 982.431030 1215.836060 -1458.477051
v 1690.824585 1215.836060 -1458.477051
v 982.431030 1215.836060 -1483.477051
v 1690.824585 1215.836060 -1483.477051
v 982.431030 416.440735 -1483.477051
v 1690.824585 416.440735 -1483.477051
v 1648.321045 416.440735 -1458.477051
v 1648.321045 1215.836060 -1458.477051
v 1648.321045 416.440735 2247.142578
v 1648.321045 1215.836060 2247.142578
v 1690.824585 416.440735 2247.142578
v 1690.824585 1215.836060 2247.142578
vt 0.931723 0.670787
vt 0.800292 0.670787
vt 0.800292 0.056083
vt 0.931723 0.056083
vt 0.035532 0.327816
vt 0.293357 0.327816
vt 0.293357 0.637333
vt 0.035532 0.637333
vn 0.000000 0.000000 1.000000
vn 0.000000 0.000000 1.000000
vn 0.000000 0.000000 1.000000
vn 0.000000 0.000000 1.000000
vn 0.000000 1.000000 0.000004
vn 0.000000 1.000000 0.000004
vn 0.000000 1.000000 0.000004
vn 0.000000 1.000000 0.000004
vn 0.000000 1.000000 0.000004
vn 0.000000 0.000000 -1.000000
vn 0.000000 0.000000 -1.000000
vn 0.000000 0.000000 -1.000000
vn 0.000000 0.000000 -1.000000
vn 0.000000 -1.000000 0.000000
vn 0.000000 -1.000000 0.000000
vn 0.000000 -1.000000 0.000000
vn 0.000000 -1.000000 0.000000
vn 0.000000 -1.000000 0.000000
vn 1.000000 0.000000 0.000000
vn 1.000000 0.000000 0.000000
vn 1.000000 0.000000 0.000000
vn 1.000000 0.000000 0.000000
vn -1.000000 0.000000 0.000000
vn -1.000000 0.000000 0.000000
vn -1.000000 0.000000 0.000000
vn -1.000000 0.000000 0.000000
vn 0.000000 0.000000 1.000000
vn 0.000000 0.000000 1.000000
vn 0.000000 0.000000 1.000000
vn 0.000000 0.000000 1.000000
vn -1.000000 0.000000 0.000000
vn -1.000000 0.000000 0.000000
vn -1.000000 0.000000 0.000000
vn -1.000000 0.000000 0.000000
vn 0.000000 -1.000000 0.000000
vn 0.000000 -1.000000 0.000000
vn 0.000000 -1.000000 0.000000
vn 0.000000 -1.000000 0.000000
vn 1.000000 0.000000 0.000000
vn 1.000000 0.000000 0.000000
vn 1.000000 0.000000 0.000000
vn 1.000000 0.000000 0.000000
vn 0.000000 1.000000 0.000000
vn 0.000000 1.000000 0.000000
vn 0.000000 1.000000 0.000000
vn 0.000000 1.000000 0.000000
s off
g pCube9
usemtl initialShadingGroup
f 35/57/69 43/58/70 44/59/71 37/60/72
f 37//73 44//74 38//75 40//76 39//77
f 39//78 40//79 42//80 41//81
f 41//82 42//83 36//84 43//85 35//86
f 36//87 42//88 40//89 38//90
f 41//91 35//92 37//93 39//94
f 46//95 45//96 47//97 48//98
f 44/53/99 43/54/100 45/55/101 46/56/102
f 43//103 36//104 47//105 45//106
f 36//107 38//108 48//109 47//110
f 38//111 44//112 46//113 48//114
